<?xml version="1.0" encoding="UTF-8" standalone="no"?>
<!DOCTYPE svg PUBLIC "-//W3C//DTD SVG 1.1//EN" "http://www.w3.org/Graphics/SVG/1.1/DTD/svg11.dtd">
<svg width="100%" height="100%" viewBox="0 0 394 156" version="1.1" xmlns="http://www.w3.org/2000/svg" xmlns:xlink="http://www.w3.org/1999/xlink" xml:space="preserve" xmlns:serif="http://www.serif.com/" style="fill-rule:evenodd;clip-rule:evenodd;stroke-linejoin:round;stroke-miterlimit:2;">
    <g transform="matrix(1,0,0,1,-147.264,-100.289)">
        <g transform="matrix(1.72014,0,0,1.72014,-18.5631,-70.1748)">
            <g transform="matrix(1,0,0,1,-55.4219,9.13079)">
                <g transform="matrix(1,0,0,1,151.825,89.968)">
                    <path d="M45.586,55.279L31.691,55.279L31.691,64.861L45.095,64.861L45.095,70.516L31.691,70.516L31.691,89.499L25.674,89.499L25.674,49.623L45.586,49.623L45.586,55.279Z" style="fill:rgb(8,6,5);fill-rule:nonzero;"/>
                </g>
                <g transform="matrix(1,0,0,1,151.825,89.968)">
                    <path d="M50.932,64.344L56.743,64.344L56.743,66.591C57.81,65.472 58.757,64.706 59.584,64.292C60.427,63.862 61.426,63.647 62.579,63.647C64.112,63.647 65.713,64.146 67.383,65.145L64.723,70.465C63.621,69.673 62.545,69.277 61.495,69.277C58.327,69.277 56.743,71.67 56.743,76.456L56.743,89.499L50.932,89.499L50.932,64.344Z" style="fill:rgb(8,6,5);fill-rule:nonzero;"/>
                </g>
                <g transform="matrix(1,0,0,1,151.825,89.968)">
                    <path d="M69.062,76.741C69.062,73.108 70.362,70.017 72.961,67.469C75.561,64.921 78.729,63.647 82.465,63.647C86.219,63.647 89.404,64.929 92.021,67.495C94.604,70.06 95.895,73.211 95.895,76.947C95.895,80.718 94.595,83.877 91.995,86.425C89.378,88.956 86.167,90.222 82.362,90.222C78.592,90.222 75.432,88.931 72.884,86.348C70.336,83.8 69.062,80.597 69.062,76.741ZM75.002,76.844C75.002,79.358 75.673,81.346 77.016,82.81C78.394,84.29 80.21,85.031 82.465,85.031C84.738,85.031 86.555,84.299 87.915,82.836C89.275,81.372 89.955,79.418 89.955,76.973C89.955,74.528 89.275,72.574 87.915,71.11C86.537,69.63 84.721,68.889 82.465,68.889C80.244,68.889 78.445,69.63 77.068,71.11C75.69,72.591 75.002,74.502 75.002,76.844Z" style="fill:rgb(8,6,5);fill-rule:nonzero;"/>
                </g>
                <g transform="matrix(1,0,0,1,151.825,89.968)">
                    <path d="M102.042,64.344L107.878,64.344L107.878,66.668C109.91,64.654 112.2,63.647 114.748,63.647C117.675,63.647 119.956,64.568 121.592,66.41C123.004,67.977 123.71,70.534 123.71,74.08L123.71,89.499L117.873,89.499L117.873,75.449C117.873,72.97 117.529,71.257 116.84,70.31C116.169,69.346 114.946,68.864 113.173,68.864C111.244,68.864 109.876,69.501 109.066,70.775C108.274,72.032 107.878,74.227 107.878,77.36L107.878,89.499L102.042,89.499L102.042,64.344Z" style="fill:rgb(8,6,5);fill-rule:nonzero;"/>
                </g>
                <g transform="matrix(1,0,0,1,151.825,89.968)">
                    <path d="M137.036,69.768L137.036,89.499L131.225,89.499L131.225,69.768L128.746,69.768L128.746,64.344L131.225,64.344L131.225,55.124L137.036,55.124L137.036,64.344L141.556,64.344L141.556,69.768L137.036,69.768Z" style="fill:rgb(8,6,5);fill-rule:nonzero;"/>
                </g>
                <g transform="matrix(1,0,0,1,151.825,89.968)">
                    <path d="M168.88,78.29L150.853,78.29C151.008,80.356 151.679,82.001 152.867,83.223C154.055,84.428 155.579,85.031 157.439,85.031C158.885,85.031 160.082,84.686 161.028,83.998C161.958,83.309 163.017,82.035 164.205,80.175L169.112,82.913C168.354,84.204 167.554,85.311 166.71,86.232C165.867,87.153 164.963,87.91 163.998,88.504C163.034,89.098 161.993,89.533 160.874,89.809C159.754,90.084 158.541,90.222 157.232,90.222C153.479,90.222 150.466,89.017 148.193,86.606C145.92,84.179 144.784,80.959 144.784,76.947C144.784,72.97 145.886,69.75 148.09,67.288C150.311,64.861 153.255,63.647 156.922,63.647C160.624,63.647 163.551,64.826 165.703,67.185C167.838,69.526 168.905,72.772 168.905,76.921L168.88,78.29ZM162.914,73.538C162.105,70.439 160.15,68.889 157.051,68.889C156.345,68.889 155.682,68.997 155.063,69.212C154.443,69.427 153.879,69.737 153.371,70.142C152.863,70.547 152.428,71.033 152.067,71.601C151.705,72.169 151.43,72.815 151.24,73.538L162.914,73.538Z" style="fill:rgb(8,6,5);fill-rule:nonzero;"/>
                </g>
                <g transform="matrix(1,0,0,1,151.825,89.968)">
                    <path d="M175.233,64.344L181.07,64.344L181.07,66.668C183.101,64.654 185.391,63.647 187.939,63.647C190.866,63.647 193.148,64.568 194.783,66.41C196.195,67.977 196.901,70.534 196.901,74.08L196.901,89.499L191.064,89.499L191.064,75.449C191.064,72.97 190.72,71.257 190.031,70.31C189.36,69.346 188.137,68.864 186.364,68.864C184.436,68.864 183.067,69.501 182.258,70.775C181.466,72.032 181.07,74.227 181.07,77.36L181.07,89.499L175.233,89.499L175.233,64.344Z" style="fill:rgb(8,6,5);fill-rule:nonzero;"/>
                </g>
                <g transform="matrix(1,0,0,1,151.825,89.968)">
                    <path d="M222.779,45.878L228.615,45.878L228.615,89.499L222.779,89.499L222.779,86.864C220.489,89.103 217.898,90.222 215.005,90.222C211.562,90.222 208.703,88.965 206.431,86.451C204.175,83.886 203.048,80.683 203.048,76.844C203.048,73.09 204.175,69.957 206.431,67.443C208.669,64.912 211.484,63.647 214.876,63.647C217.82,63.647 220.454,64.852 222.779,67.262L222.779,45.878ZM208.988,76.844C208.988,79.254 209.633,81.217 210.925,82.732C212.25,84.265 213.92,85.031 215.935,85.031C218.087,85.031 219.826,84.29 221.152,82.81C222.477,81.277 223.14,79.332 223.14,76.973C223.14,74.614 222.477,72.669 221.152,71.136C219.826,69.638 218.104,68.889 215.986,68.889C213.989,68.889 212.319,69.647 210.976,71.162C209.65,72.694 208.988,74.588 208.988,76.844Z" style="fill:rgb(8,6,5);fill-rule:nonzero;"/>
                </g>
                <g transform="matrix(1,0,0,1,151.825,89.968)">
                    <path d="M19.912,5.656L6.017,5.656L6.017,15.237L19.421,15.237L19.421,20.893L6.017,20.893L6.017,39.876L-0,39.876L-0,0L19.912,0L19.912,5.656Z" style="fill:rgb(8,6,5);fill-rule:nonzero;"/>
                </g>
                <g transform="matrix(1,0,0,1,151.825,89.968)">
                    <path d="M31.069,14.721L31.069,29.158C31.069,33.324 32.713,35.408 36.002,35.408C39.29,35.408 40.934,33.324 40.934,29.158L40.934,14.721L46.745,14.721L46.745,29.287C46.745,31.301 46.496,33.04 45.996,34.504C45.514,35.812 44.679,36.992 43.491,38.042C41.528,39.746 39.032,40.599 36.002,40.599C32.989,40.599 30.501,39.746 28.538,38.042C27.333,36.992 26.48,35.812 25.981,34.504C25.499,33.333 25.258,31.594 25.258,29.287L25.258,14.721L31.069,14.721Z" style="fill:rgb(8,6,5);fill-rule:nonzero;"/>
                </g>
                <g transform="matrix(1,0,0,1,151.825,89.968)">
                    <path d="M60.072,20.144L60.072,39.876L54.261,39.876L54.261,20.144L51.781,20.144L51.781,14.721L54.261,14.721L54.261,5.501L60.072,5.501L60.072,14.721L64.591,14.721L64.591,20.144L60.072,20.144Z" style="fill:rgb(8,6,5);fill-rule:nonzero;"/>
                </g>
                <g transform="matrix(1,0,0,1,151.825,89.968)">
                    <path d="M74.353,14.721L74.353,29.158C74.353,33.324 75.998,35.408 79.286,35.408C82.575,35.408 84.219,33.324 84.219,29.158L84.219,14.721L90.03,14.721L90.03,29.287C90.03,31.301 89.78,33.04 89.281,34.504C88.799,35.812 87.964,36.992 86.776,38.042C84.813,39.746 82.316,40.599 79.286,40.599C76.273,40.599 73.785,39.746 71.822,38.042C70.617,36.992 69.765,35.812 69.266,34.504C68.784,33.333 68.542,31.594 68.542,29.287L68.542,14.721L74.353,14.721Z" style="fill:rgb(8,6,5);fill-rule:nonzero;"/>
                </g>
                <g transform="matrix(1,0,0,1,151.825,89.968)">
                    <path d="M97.364,14.721L103.175,14.721L103.175,16.968C104.243,15.849 105.19,15.082 106.016,14.669C106.86,14.239 107.858,14.024 109.012,14.024C110.544,14.024 112.146,14.523 113.816,15.521L111.156,20.842C110.054,20.05 108.978,19.654 107.927,19.654C104.759,19.654 103.175,22.047 103.175,26.833L103.175,39.876L97.364,39.876L97.364,14.721Z" style="fill:rgb(8,6,5);fill-rule:nonzero;"/>
                </g>
                <g transform="matrix(1,0,0,1,151.825,89.968)">
                    <path d="M139.693,28.667L121.667,28.667C121.822,30.733 122.493,32.377 123.681,33.6C124.869,34.805 126.393,35.408 128.252,35.408C129.699,35.408 130.895,35.063 131.842,34.375C132.772,33.686 133.831,32.412 135.019,30.552L139.926,33.29C139.168,34.581 138.368,35.687 137.524,36.609C136.68,37.53 135.776,38.287 134.812,38.881C133.848,39.475 132.806,39.91 131.687,40.185C130.568,40.461 129.354,40.599 128.046,40.599C124.292,40.599 121.279,39.393 119.007,36.983C116.734,34.555 115.598,31.336 115.598,27.324C115.598,23.347 116.7,20.127 118.903,17.665C121.124,15.237 124.069,14.024 127.736,14.024C131.438,14.024 134.365,15.203 136.517,17.562C138.652,19.903 139.719,23.149 139.719,27.298L139.693,28.667ZM133.728,23.915C132.918,20.816 130.964,19.266 127.865,19.266C127.159,19.266 126.496,19.374 125.876,19.589C125.257,19.804 124.693,20.114 124.185,20.519C123.677,20.923 123.242,21.41 122.881,21.978C122.519,22.546 122.244,23.192 122.054,23.915L133.728,23.915Z" style="fill:rgb(8,6,5);fill-rule:nonzero;"/>
                </g>
            </g>
        </g>
    </g>
</svg>
