<?xml version="1.0" encoding="UTF-8" standalone="no"?>
<!DOCTYPE svg PUBLIC "-//W3C//DTD SVG 1.1//EN" "http://www.w3.org/Graphics/SVG/1.1/DTD/svg11.dtd">
<svg width="100%" height="100%" viewBox="0 0 394 194" version="1.1" xmlns="http://www.w3.org/2000/svg" xmlns:xlink="http://www.w3.org/1999/xlink" xml:space="preserve" xmlns:serif="http://www.serif.com/" style="fill-rule:evenodd;clip-rule:evenodd;stroke-linejoin:round;stroke-miterlimit:2;">
    <g transform="matrix(1,0,0,1,-700.247,-100.289)">
        <g transform="matrix(1.72014,0,0,1.72014,534.722,-70.1748)">
            <g transform="matrix(1,0,0,1,-55.4219,9.13079)">
                <g transform="matrix(1,0,0,1,151.825,89.968)">
                    <path d="M45.586,55.279L31.691,55.279L31.691,64.861L45.095,64.861L45.095,70.516L31.691,70.516L31.691,89.499L25.674,89.499L25.674,49.623L45.586,49.623L45.586,55.279Z" style="fill:rgb(8,6,5);fill-rule:nonzero;"/>
                </g>
                <g transform="matrix(1,0,0,1,151.825,89.968)">
                    <path d="M50.932,64.344L56.743,64.344L56.743,66.591C57.81,65.472 58.757,64.706 59.584,64.292C60.427,63.862 61.426,63.647 62.579,63.647C64.112,63.647 65.713,64.146 67.383,65.145L64.723,70.465C63.621,69.673 62.545,69.277 61.495,69.277C58.327,69.277 56.743,71.67 56.743,76.456L56.743,89.499L50.932,89.499L50.932,64.344Z" style="fill:rgb(8,6,5);fill-rule:nonzero;"/>
                </g>
                <g transform="matrix(1,0,0,1,151.825,89.968)">
                    <path d="M69.062,76.741C69.062,73.108 70.362,70.017 72.961,67.469C75.561,64.921 78.729,63.647 82.465,63.647C86.219,63.647 89.404,64.929 92.021,67.495C94.604,70.06 95.895,73.211 95.895,76.947C95.895,80.718 94.595,83.877 91.995,86.425C89.378,88.956 86.167,90.222 82.362,90.222C78.592,90.222 75.432,88.931 72.884,86.348C70.336,83.8 69.062,80.597 69.062,76.741ZM75.002,76.844C75.002,79.358 75.673,81.346 77.016,82.81C78.394,84.29 80.21,85.031 82.465,85.031C84.738,85.031 86.555,84.299 87.915,82.836C89.275,81.372 89.955,79.418 89.955,76.973C89.955,74.528 89.275,72.574 87.915,71.11C86.537,69.63 84.721,68.889 82.465,68.889C80.244,68.889 78.445,69.63 77.068,71.11C75.69,72.591 75.002,74.502 75.002,76.844Z" style="fill:rgb(8,6,5);fill-rule:nonzero;"/>
                </g>
                <g transform="matrix(1,0,0,1,151.825,89.968)">
                    <path d="M102.042,64.344L107.878,64.344L107.878,66.668C109.91,64.654 112.2,63.647 114.748,63.647C117.675,63.647 119.956,64.568 121.592,66.41C123.004,67.977 123.71,70.534 123.71,74.08L123.71,89.499L117.873,89.499L117.873,75.449C117.873,72.97 117.529,71.257 116.84,70.31C116.169,69.346 114.946,68.864 113.173,68.864C111.244,68.864 109.876,69.501 109.066,70.775C108.274,72.032 107.878,74.227 107.878,77.36L107.878,89.499L102.042,89.499L102.042,64.344Z" style="fill:rgb(8,6,5);fill-rule:nonzero;"/>
                </g>
                <g transform="matrix(1,0,0,1,151.825,89.968)">
                    <path d="M137.036,69.768L137.036,89.499L131.225,89.499L131.225,69.768L128.746,69.768L128.746,64.344L131.225,64.344L131.225,55.124L137.036,55.124L137.036,64.344L141.556,64.344L141.556,69.768L137.036,69.768Z" style="fill:rgb(8,6,5);fill-rule:nonzero;"/>
                </g>
                <g transform="matrix(1,0,0,1,151.825,89.968)">
                    <path d="M168.88,78.29L150.853,78.29C151.008,80.356 151.679,82.001 152.867,83.223C154.055,84.428 155.579,85.031 157.439,85.031C158.885,85.031 160.082,84.686 161.028,83.998C161.958,83.309 163.017,82.035 164.205,80.175L169.112,82.913C168.354,84.204 167.554,85.311 166.71,86.232C165.867,87.153 164.963,87.91 163.998,88.504C163.034,89.098 161.993,89.533 160.874,89.809C159.754,90.084 158.541,90.222 157.232,90.222C153.479,90.222 150.466,89.017 148.193,86.606C145.92,84.179 144.784,80.959 144.784,76.947C144.784,72.97 145.886,69.75 148.09,67.288C150.311,64.861 153.255,63.647 156.922,63.647C160.624,63.647 163.551,64.826 165.703,67.185C167.838,69.526 168.905,72.772 168.905,76.921L168.88,78.29ZM162.914,73.538C162.105,70.439 160.15,68.889 157.051,68.889C156.345,68.889 155.682,68.997 155.063,69.212C154.443,69.427 153.879,69.737 153.371,70.142C152.863,70.547 152.428,71.033 152.067,71.601C151.705,72.169 151.43,72.815 151.24,73.538L162.914,73.538Z" style="fill:rgb(8,6,5);fill-rule:nonzero;"/>
                </g>
                <g transform="matrix(1,0,0,1,151.825,89.968)">
                    <path d="M175.233,64.344L181.07,64.344L181.07,66.668C183.101,64.654 185.391,63.647 187.939,63.647C190.866,63.647 193.148,64.568 194.783,66.41C196.195,67.977 196.901,70.534 196.901,74.08L196.901,89.499L191.064,89.499L191.064,75.449C191.064,72.97 190.72,71.257 190.031,70.31C189.36,69.346 188.137,68.864 186.364,68.864C184.436,68.864 183.067,69.501 182.258,70.775C181.466,72.032 181.07,74.227 181.07,77.36L181.07,89.499L175.233,89.499L175.233,64.344Z" style="fill:rgb(8,6,5);fill-rule:nonzero;"/>
                </g>
                <g transform="matrix(1,0,0,1,151.825,89.968)">
                    <path d="M222.779,45.878L228.615,45.878L228.615,89.499L222.779,89.499L222.779,86.864C220.489,89.103 217.898,90.222 215.005,90.222C211.562,90.222 208.703,88.965 206.431,86.451C204.175,83.886 203.048,80.683 203.048,76.844C203.048,73.09 204.175,69.957 206.431,67.443C208.669,64.912 211.484,63.647 214.876,63.647C217.82,63.647 220.454,64.852 222.779,67.262L222.779,45.878ZM208.988,76.844C208.988,79.254 209.633,81.217 210.925,82.732C212.25,84.265 213.92,85.031 215.935,85.031C218.087,85.031 219.826,84.29 221.152,82.81C222.477,81.277 223.14,79.332 223.14,76.973C223.14,74.614 222.477,72.669 221.152,71.136C219.826,69.638 218.104,68.889 215.986,68.889C213.989,68.889 212.319,69.647 210.976,71.162C209.65,72.694 208.988,74.588 208.988,76.844Z" style="fill:rgb(8,6,5);fill-rule:nonzero;"/>
                </g>
                <g transform="matrix(1,0,0,1,151.825,89.968)">
                    <path d="M19.912,5.656L6.017,5.656L6.017,15.237L19.421,15.237L19.421,20.893L6.017,20.893L6.017,39.876L-0,39.876L-0,0L19.912,0L19.912,5.656Z" style="fill:rgb(8,6,5);fill-rule:nonzero;"/>
                </g>
                <g transform="matrix(1,0,0,1,151.825,89.968)">
                    <path d="M31.069,14.721L31.069,29.158C31.069,33.324 32.713,35.408 36.002,35.408C39.29,35.408 40.934,33.324 40.934,29.158L40.934,14.721L46.745,14.721L46.745,29.287C46.745,31.301 46.496,33.04 45.996,34.504C45.514,35.812 44.679,36.992 43.491,38.042C41.528,39.746 39.032,40.599 36.002,40.599C32.989,40.599 30.501,39.746 28.538,38.042C27.333,36.992 26.48,35.812 25.981,34.504C25.499,33.333 25.258,31.594 25.258,29.287L25.258,14.721L31.069,14.721Z" style="fill:rgb(8,6,5);fill-rule:nonzero;"/>
                </g>
                <g transform="matrix(1,0,0,1,151.825,89.968)">
                    <path d="M60.072,20.144L60.072,39.876L54.261,39.876L54.261,20.144L51.781,20.144L51.781,14.721L54.261,14.721L54.261,5.501L60.072,5.501L60.072,14.721L64.591,14.721L64.591,20.144L60.072,20.144Z" style="fill:rgb(8,6,5);fill-rule:nonzero;"/>
                </g>
                <g transform="matrix(1,0,0,1,151.825,89.968)">
                    <path d="M74.353,14.721L74.353,29.158C74.353,33.324 75.998,35.408 79.286,35.408C82.575,35.408 84.219,33.324 84.219,29.158L84.219,14.721L90.03,14.721L90.03,29.287C90.03,31.301 89.78,33.04 89.281,34.504C88.799,35.812 87.964,36.992 86.776,38.042C84.813,39.746 82.316,40.599 79.286,40.599C76.273,40.599 73.785,39.746 71.822,38.042C70.617,36.992 69.765,35.812 69.266,34.504C68.784,33.333 68.542,31.594 68.542,29.287L68.542,14.721L74.353,14.721Z" style="fill:rgb(8,6,5);fill-rule:nonzero;"/>
                </g>
                <g transform="matrix(1,0,0,1,151.825,89.968)">
                    <path d="M97.364,14.721L103.175,14.721L103.175,16.968C104.243,15.849 105.19,15.082 106.016,14.669C106.86,14.239 107.858,14.024 109.012,14.024C110.544,14.024 112.146,14.523 113.816,15.521L111.156,20.842C110.054,20.05 108.978,19.654 107.927,19.654C104.759,19.654 103.175,22.047 103.175,26.833L103.175,39.876L97.364,39.876L97.364,14.721Z" style="fill:rgb(8,6,5);fill-rule:nonzero;"/>
                </g>
                <g transform="matrix(1,0,0,1,151.825,89.968)">
                    <path d="M139.693,28.667L121.667,28.667C121.822,30.733 122.493,32.377 123.681,33.6C124.869,34.805 126.393,35.408 128.252,35.408C129.699,35.408 130.895,35.063 131.842,34.375C132.772,33.686 133.831,32.412 135.019,30.552L139.926,33.29C139.168,34.581 138.368,35.687 137.524,36.609C136.68,37.53 135.776,38.287 134.812,38.881C133.848,39.475 132.806,39.91 131.687,40.185C130.568,40.461 129.354,40.599 128.046,40.599C124.292,40.599 121.279,39.393 119.007,36.983C116.734,34.555 115.598,31.336 115.598,27.324C115.598,23.347 116.7,20.127 118.903,17.665C121.124,15.237 124.069,14.024 127.736,14.024C131.438,14.024 134.365,15.203 136.517,17.562C138.652,19.903 139.719,23.149 139.719,27.298L139.693,28.667ZM133.728,23.915C132.918,20.816 130.964,19.266 127.865,19.266C127.159,19.266 126.496,19.374 125.876,19.589C125.257,19.804 124.693,20.114 124.185,20.519C123.677,20.923 123.242,21.41 122.881,21.978C122.519,22.546 122.244,23.192 122.054,23.915L133.728,23.915Z" style="fill:rgb(8,6,5);fill-rule:nonzero;"/>
                </g>
            </g>
            <g transform="matrix(2.10854,0,0,2.10854,-305.295,-100.262)">
                <g transform="matrix(12,0,0,12,270.849,103.571)">
                    <path d="M0.031,-0C0.035,-0.06 0.047,-0.113 0.069,-0.157C0.09,-0.202 0.132,-0.242 0.195,-0.279L0.289,-0.333C0.331,-0.357 0.361,-0.378 0.377,-0.396C0.404,-0.423 0.417,-0.453 0.417,-0.488C0.417,-0.529 0.405,-0.561 0.381,-0.585C0.356,-0.609 0.324,-0.621 0.283,-0.621C0.223,-0.621 0.181,-0.598 0.158,-0.553C0.146,-0.528 0.139,-0.494 0.138,-0.451L0.048,-0.451C0.049,-0.512 0.061,-0.562 0.082,-0.6C0.12,-0.668 0.187,-0.702 0.284,-0.702C0.364,-0.702 0.422,-0.68 0.459,-0.637C0.496,-0.593 0.515,-0.545 0.515,-0.492C0.515,-0.436 0.495,-0.388 0.456,-0.349C0.433,-0.326 0.392,-0.298 0.333,-0.265L0.266,-0.228C0.234,-0.21 0.209,-0.193 0.191,-0.177C0.158,-0.149 0.138,-0.118 0.129,-0.083L0.511,-0.083L0.511,-0L0.031,-0Z" style="fill-rule:nonzero;"/>
                </g>
                <g transform="matrix(12,0,0,12,277.523,103.571)">
                    <path d="M0.271,-0.699C0.361,-0.699 0.426,-0.662 0.467,-0.587C0.498,-0.53 0.514,-0.451 0.514,-0.351C0.514,-0.256 0.5,-0.177 0.471,-0.115C0.43,-0.026 0.363,0.019 0.27,0.019C0.186,0.019 0.124,-0.017 0.083,-0.09C0.048,-0.151 0.031,-0.233 0.031,-0.335C0.031,-0.415 0.042,-0.483 0.062,-0.54C0.1,-0.646 0.17,-0.699 0.271,-0.699ZM0.27,-0.061C0.315,-0.061 0.351,-0.081 0.378,-0.122C0.405,-0.162 0.419,-0.237 0.419,-0.347C0.419,-0.427 0.409,-0.492 0.39,-0.543C0.37,-0.594 0.332,-0.62 0.276,-0.62C0.224,-0.62 0.186,-0.596 0.162,-0.547C0.138,-0.498 0.126,-0.427 0.126,-0.332C0.126,-0.261 0.134,-0.203 0.149,-0.16C0.173,-0.094 0.213,-0.061 0.27,-0.061Z" style="fill-rule:nonzero;"/>
                </g>
                <g transform="matrix(12,0,0,12,284.197,103.571)">
                    <path d="M0.031,-0C0.035,-0.06 0.047,-0.113 0.069,-0.157C0.09,-0.202 0.132,-0.242 0.195,-0.279L0.289,-0.333C0.331,-0.357 0.361,-0.378 0.377,-0.396C0.404,-0.423 0.417,-0.453 0.417,-0.488C0.417,-0.529 0.405,-0.561 0.381,-0.585C0.356,-0.609 0.324,-0.621 0.283,-0.621C0.223,-0.621 0.181,-0.598 0.158,-0.553C0.146,-0.528 0.139,-0.494 0.138,-0.451L0.048,-0.451C0.049,-0.512 0.061,-0.562 0.082,-0.6C0.12,-0.668 0.187,-0.702 0.284,-0.702C0.364,-0.702 0.422,-0.68 0.459,-0.637C0.496,-0.593 0.515,-0.545 0.515,-0.492C0.515,-0.436 0.495,-0.388 0.456,-0.349C0.433,-0.326 0.392,-0.298 0.333,-0.265L0.266,-0.228C0.234,-0.21 0.209,-0.193 0.191,-0.177C0.158,-0.149 0.138,-0.118 0.129,-0.083L0.511,-0.083L0.511,-0L0.031,-0Z" style="fill-rule:nonzero;"/>
                </g>
                <g transform="matrix(12,0,0,12,290.871,103.571)">
                    <path d="M0.292,-0.702C0.371,-0.702 0.425,-0.682 0.456,-0.641C0.487,-0.601 0.502,-0.559 0.502,-0.516L0.415,-0.516C0.41,-0.544 0.402,-0.565 0.39,-0.581C0.369,-0.61 0.337,-0.625 0.294,-0.625C0.245,-0.625 0.206,-0.602 0.177,-0.557C0.148,-0.511 0.132,-0.446 0.128,-0.362C0.149,-0.391 0.174,-0.414 0.205,-0.428C0.233,-0.441 0.264,-0.448 0.298,-0.448C0.357,-0.448 0.408,-0.429 0.452,-0.392C0.495,-0.354 0.517,-0.298 0.517,-0.224C0.517,-0.161 0.496,-0.104 0.455,-0.055C0.414,-0.006 0.355,0.018 0.278,0.018C0.213,0.018 0.156,-0.007 0.109,-0.056C0.061,-0.106 0.038,-0.19 0.038,-0.307C0.038,-0.394 0.048,-0.468 0.069,-0.528C0.11,-0.644 0.184,-0.702 0.292,-0.702ZM0.286,-0.06C0.332,-0.06 0.367,-0.076 0.39,-0.107C0.413,-0.138 0.424,-0.174 0.424,-0.217C0.424,-0.253 0.414,-0.287 0.394,-0.319C0.373,-0.351 0.336,-0.368 0.282,-0.368C0.244,-0.368 0.211,-0.355 0.182,-0.33C0.154,-0.305 0.14,-0.267 0.14,-0.217C0.14,-0.173 0.153,-0.135 0.178,-0.105C0.204,-0.075 0.24,-0.06 0.286,-0.06Z" style="fill-rule:nonzero;"/>
                </g>
            </g>
            <g transform="matrix(1.35064,0,0,1.35064,-270.977,68.5223)">
                <g transform="matrix(12,0,0,12,270.849,103.571)">
                    <path d="M0.085,-0.717L0.608,-0.717L0.608,-0.629L0.18,-0.629L0.18,-0.412L0.576,-0.412L0.576,-0.329L0.18,-0.329L0.18,-0.085L0.616,-0.085L0.616,-0L0.085,-0L0.085,-0.717Z" style="fill-rule:nonzero;"/>
                </g>
                <g transform="matrix(12,0,0,12,278.853,103.571)">
                    <path d="M0.117,-0.164C0.119,-0.135 0.127,-0.112 0.139,-0.097C0.161,-0.068 0.199,-0.054 0.254,-0.054C0.286,-0.054 0.315,-0.061 0.34,-0.075C0.365,-0.09 0.377,-0.111 0.377,-0.141C0.377,-0.164 0.367,-0.181 0.347,-0.192C0.334,-0.2 0.309,-0.208 0.272,-0.217L0.202,-0.235C0.158,-0.246 0.125,-0.258 0.104,-0.272C0.066,-0.296 0.047,-0.329 0.047,-0.371C0.047,-0.42 0.065,-0.46 0.1,-0.491C0.136,-0.521 0.184,-0.537 0.244,-0.537C0.323,-0.537 0.38,-0.514 0.415,-0.467C0.436,-0.438 0.447,-0.406 0.446,-0.373L0.363,-0.373C0.362,-0.392 0.355,-0.41 0.342,-0.427C0.322,-0.45 0.287,-0.461 0.237,-0.461C0.204,-0.461 0.179,-0.455 0.162,-0.442C0.145,-0.43 0.136,-0.413 0.136,-0.392C0.136,-0.369 0.147,-0.351 0.17,-0.337C0.183,-0.329 0.202,-0.322 0.228,-0.316L0.286,-0.302C0.349,-0.286 0.391,-0.272 0.413,-0.257C0.447,-0.235 0.464,-0.2 0.464,-0.151C0.464,-0.105 0.446,-0.065 0.411,-0.031C0.376,0.003 0.322,0.02 0.25,0.02C0.172,0.02 0.117,0.002 0.084,-0.033C0.052,-0.068 0.035,-0.112 0.032,-0.164L0.117,-0.164Z" style="fill-rule:nonzero;"/>
                </g>
                <g transform="matrix(12,0,0,12,284.853,103.571)">
                    <path d="M0.285,-0.059C0.326,-0.059 0.36,-0.076 0.387,-0.111C0.415,-0.145 0.428,-0.196 0.428,-0.265C0.428,-0.306 0.422,-0.342 0.41,-0.372C0.387,-0.43 0.346,-0.458 0.285,-0.458C0.224,-0.458 0.183,-0.428 0.16,-0.367C0.148,-0.335 0.142,-0.293 0.142,-0.243C0.142,-0.203 0.148,-0.168 0.16,-0.14C0.183,-0.086 0.225,-0.059 0.285,-0.059ZM0.058,-0.521L0.143,-0.521L0.143,-0.451C0.161,-0.475 0.18,-0.493 0.201,-0.506C0.23,-0.526 0.265,-0.536 0.305,-0.536C0.364,-0.536 0.415,-0.513 0.456,-0.468C0.497,-0.422 0.518,-0.357 0.518,-0.273C0.518,-0.159 0.488,-0.078 0.429,-0.029C0.391,0.002 0.347,0.018 0.297,0.018C0.257,0.018 0.224,0.009 0.198,-0.008C0.182,-0.018 0.165,-0.035 0.146,-0.059L0.146,0.208L0.058,0.208L0.058,-0.521Z" style="fill-rule:nonzero;"/>
                </g>
                <g transform="matrix(12,0,0,12,291.527,103.571)">
                    <path d="M0.272,-0.057C0.33,-0.057 0.37,-0.079 0.392,-0.123C0.413,-0.167 0.424,-0.216 0.424,-0.27C0.424,-0.319 0.417,-0.359 0.401,-0.389C0.376,-0.437 0.333,-0.461 0.273,-0.461C0.219,-0.461 0.18,-0.441 0.156,-0.4C0.131,-0.359 0.119,-0.309 0.119,-0.251C0.119,-0.196 0.131,-0.149 0.156,-0.112C0.18,-0.075 0.219,-0.057 0.272,-0.057ZM0.275,-0.538C0.343,-0.538 0.4,-0.516 0.446,-0.471C0.493,-0.426 0.516,-0.36 0.516,-0.272C0.516,-0.188 0.496,-0.118 0.455,-0.063C0.414,-0.008 0.35,0.019 0.264,0.019C0.192,0.019 0.135,-0.005 0.092,-0.054C0.05,-0.103 0.029,-0.168 0.029,-0.25C0.029,-0.338 0.051,-0.408 0.096,-0.46C0.14,-0.512 0.2,-0.538 0.275,-0.538Z" style="fill-rule:nonzero;"/>
                </g>
                <g transform="matrix(12,0,0,12,298.201,103.571)">
                    <path d="M0.272,-0.057C0.33,-0.057 0.37,-0.079 0.392,-0.123C0.413,-0.167 0.424,-0.216 0.424,-0.27C0.424,-0.319 0.417,-0.359 0.401,-0.389C0.376,-0.437 0.333,-0.461 0.273,-0.461C0.219,-0.461 0.18,-0.441 0.156,-0.4C0.131,-0.359 0.119,-0.309 0.119,-0.251C0.119,-0.196 0.131,-0.149 0.156,-0.112C0.18,-0.075 0.219,-0.057 0.272,-0.057ZM0.275,-0.538C0.343,-0.538 0.4,-0.516 0.446,-0.471C0.493,-0.426 0.516,-0.36 0.516,-0.272C0.516,-0.188 0.496,-0.118 0.455,-0.063C0.414,-0.008 0.35,0.019 0.264,0.019C0.192,0.019 0.135,-0.005 0.092,-0.054C0.05,-0.103 0.029,-0.168 0.029,-0.25C0.029,-0.338 0.051,-0.408 0.096,-0.46C0.14,-0.512 0.2,-0.538 0.275,-0.538Z" style="fill-rule:nonzero;"/>
                </g>
                <g transform="matrix(12,0,0,12,304.874,103.571)">
                    <path d="M0.083,0.102C0.105,0.098 0.121,0.082 0.13,0.055C0.135,0.04 0.138,0.026 0.138,0.012C0.138,0.01 0.138,0.008 0.137,0.006C0.137,0.004 0.137,0.002 0.136,-0L0.083,-0L0.083,-0.106L0.188,-0.106L0.188,-0.008C0.188,0.031 0.18,0.065 0.164,0.094C0.148,0.124 0.121,0.142 0.083,0.148L0.083,0.102Z" style="fill-rule:nonzero;"/>
                </g>
                <g transform="matrix(12,0,0,12,311.542,103.571)">
                    <path d="M0.085,-0.717L0.583,-0.717L0.583,-0.629L0.183,-0.629L0.183,-0.412L0.535,-0.412L0.535,-0.326L0.183,-0.326L0.183,-0L0.085,-0L0.085,-0.717Z" style="fill-rule:nonzero;"/>
                </g>
                <g transform="matrix(12,0,0,12,318.872,103.571)">
                    <path d="M0.064,-0.521L0.154,-0.521L0.154,-0L0.064,-0L0.064,-0.521ZM0.064,-0.717L0.154,-0.717L0.154,-0.618L0.064,-0.618L0.064,-0.717Z" style="fill-rule:nonzero;"/>
                </g>
                <g transform="matrix(12,0,0,12,321.539,103.571)">
                    <path d="M0.064,-0.523L0.148,-0.523L0.148,-0.449C0.173,-0.479 0.199,-0.501 0.227,-0.515C0.254,-0.528 0.285,-0.535 0.319,-0.535C0.393,-0.535 0.443,-0.509 0.469,-0.457C0.484,-0.429 0.491,-0.388 0.491,-0.335L0.491,-0L0.401,-0L0.401,-0.33C0.401,-0.361 0.397,-0.387 0.387,-0.407C0.372,-0.439 0.343,-0.456 0.302,-0.456C0.281,-0.456 0.264,-0.453 0.251,-0.449C0.227,-0.442 0.206,-0.428 0.188,-0.406C0.173,-0.389 0.163,-0.371 0.159,-0.353C0.155,-0.334 0.152,-0.308 0.152,-0.274L0.152,-0L0.064,-0L0.064,-0.523Z" style="fill-rule:nonzero;"/>
                </g>
                <g transform="matrix(12,0,0,12,328.212,103.571)">
                    <rect x="0.067" y="-0.717" width="0.088" height="0.717" style="fill-rule:nonzero;"/>
                </g>
                <g transform="matrix(12,0,0,12,330.878,103.571)">
                    <path d="M0.132,-0.139C0.132,-0.114 0.141,-0.094 0.16,-0.079C0.178,-0.064 0.2,-0.057 0.226,-0.057C0.257,-0.057 0.286,-0.064 0.315,-0.079C0.364,-0.102 0.389,-0.141 0.389,-0.195L0.389,-0.266C0.378,-0.259 0.364,-0.254 0.347,-0.249C0.33,-0.244 0.314,-0.241 0.297,-0.239L0.244,-0.232C0.212,-0.228 0.188,-0.222 0.172,-0.212C0.145,-0.197 0.132,-0.173 0.132,-0.139ZM0.345,-0.317C0.365,-0.319 0.378,-0.328 0.385,-0.342C0.389,-0.35 0.391,-0.361 0.391,-0.376C0.391,-0.406 0.38,-0.428 0.359,-0.441C0.338,-0.455 0.307,-0.461 0.268,-0.461C0.222,-0.461 0.189,-0.449 0.17,-0.424C0.159,-0.411 0.152,-0.39 0.149,-0.363L0.067,-0.363C0.069,-0.428 0.089,-0.473 0.13,-0.498C0.17,-0.523 0.216,-0.536 0.27,-0.536C0.331,-0.536 0.381,-0.524 0.419,-0.5C0.458,-0.477 0.477,-0.441 0.477,-0.391L0.477,-0.09C0.477,-0.081 0.478,-0.073 0.482,-0.068C0.486,-0.062 0.494,-0.06 0.506,-0.06C0.51,-0.06 0.514,-0.06 0.519,-0.06C0.524,-0.061 0.529,-0.062 0.535,-0.063L0.535,0.002C0.521,0.006 0.511,0.009 0.503,0.01C0.496,0.011 0.486,0.011 0.474,0.011C0.444,0.011 0.422,0 0.408,-0.021C0.401,-0.032 0.396,-0.049 0.393,-0.069C0.375,-0.046 0.349,-0.026 0.316,-0.008C0.282,0.009 0.245,0.018 0.205,0.018C0.157,0.018 0.117,0.003 0.086,-0.027C0.055,-0.056 0.04,-0.093 0.04,-0.137C0.04,-0.186 0.055,-0.223 0.085,-0.25C0.116,-0.277 0.155,-0.293 0.205,-0.299L0.345,-0.317Z" style="fill-rule:nonzero;"/>
                </g>
                <g transform="matrix(12,0,0,12,337.552,103.571)">
                    <path d="M0.064,-0.523L0.148,-0.523L0.148,-0.449C0.173,-0.479 0.199,-0.501 0.227,-0.515C0.254,-0.528 0.285,-0.535 0.319,-0.535C0.393,-0.535 0.443,-0.509 0.469,-0.457C0.484,-0.429 0.491,-0.388 0.491,-0.335L0.491,-0L0.401,-0L0.401,-0.33C0.401,-0.361 0.397,-0.387 0.387,-0.407C0.372,-0.439 0.343,-0.456 0.302,-0.456C0.281,-0.456 0.264,-0.453 0.251,-0.449C0.227,-0.442 0.206,-0.428 0.188,-0.406C0.173,-0.389 0.163,-0.371 0.159,-0.353C0.155,-0.334 0.152,-0.308 0.152,-0.274L0.152,-0L0.064,-0L0.064,-0.523Z" style="fill-rule:nonzero;"/>
                </g>
                <g transform="matrix(12,0,0,12,344.226,103.571)">
                    <path d="M0.12,-0.255C0.12,-0.199 0.132,-0.153 0.156,-0.115C0.18,-0.077 0.218,-0.058 0.27,-0.058C0.311,-0.058 0.344,-0.076 0.37,-0.111C0.397,-0.146 0.41,-0.196 0.41,-0.261C0.41,-0.327 0.396,-0.376 0.369,-0.408C0.342,-0.44 0.309,-0.456 0.269,-0.456C0.225,-0.456 0.189,-0.439 0.161,-0.405C0.134,-0.371 0.12,-0.321 0.12,-0.255ZM0.252,-0.532C0.292,-0.532 0.326,-0.524 0.353,-0.507C0.369,-0.497 0.386,-0.48 0.406,-0.456L0.406,-0.72L0.491,-0.72L0.491,-0L0.412,-0L0.412,-0.073C0.391,-0.041 0.367,-0.017 0.339,-0.003C0.311,0.011 0.279,0.019 0.243,0.019C0.184,0.019 0.134,-0.006 0.091,-0.055C0.049,-0.104 0.027,-0.169 0.027,-0.25C0.027,-0.327 0.047,-0.393 0.086,-0.448C0.125,-0.504 0.18,-0.532 0.252,-0.532Z" style="fill-rule:nonzero;"/>
                </g>
            </g>
            <g transform="matrix(1.35064,0,0,1.35064,-123.554,68.7025)">
                <g transform="matrix(12,0,0,12,270.849,103.571)">
                    <path d="M0.272,-0.406C0.311,-0.406 0.341,-0.417 0.363,-0.439C0.385,-0.46 0.396,-0.486 0.396,-0.516C0.396,-0.542 0.385,-0.566 0.364,-0.588C0.343,-0.61 0.312,-0.621 0.269,-0.621C0.227,-0.621 0.196,-0.61 0.177,-0.588C0.158,-0.566 0.149,-0.541 0.149,-0.511C0.149,-0.478 0.161,-0.453 0.186,-0.434C0.21,-0.416 0.239,-0.406 0.272,-0.406ZM0.277,-0.06C0.318,-0.06 0.352,-0.071 0.379,-0.093C0.406,-0.115 0.419,-0.148 0.419,-0.191C0.419,-0.237 0.405,-0.271 0.377,-0.294C0.35,-0.318 0.314,-0.33 0.271,-0.33C0.229,-0.33 0.195,-0.318 0.168,-0.294C0.142,-0.27 0.128,-0.237 0.128,-0.194C0.128,-0.158 0.141,-0.126 0.165,-0.1C0.189,-0.073 0.227,-0.06 0.277,-0.06ZM0.152,-0.373C0.128,-0.383 0.109,-0.395 0.095,-0.409C0.069,-0.435 0.057,-0.469 0.057,-0.511C0.057,-0.563 0.076,-0.608 0.113,-0.645C0.151,-0.682 0.205,-0.701 0.274,-0.701C0.341,-0.701 0.394,-0.684 0.432,-0.648C0.47,-0.613 0.489,-0.572 0.489,-0.524C0.489,-0.481 0.478,-0.445 0.456,-0.418C0.443,-0.403 0.424,-0.388 0.398,-0.374C0.427,-0.36 0.45,-0.345 0.466,-0.328C0.497,-0.295 0.513,-0.253 0.513,-0.201C0.513,-0.139 0.492,-0.087 0.451,-0.044C0.409,-0.001 0.351,0.02 0.275,0.02C0.207,0.02 0.15,0.002 0.103,-0.035C0.056,-0.072 0.032,-0.126 0.032,-0.196C0.032,-0.238 0.042,-0.273 0.063,-0.303C0.083,-0.334 0.113,-0.357 0.152,-0.373Z" style="fill-rule:nonzero;"/>
                </g>
                <g transform="matrix(12,0,0,12,277.523,103.571)">
                    <rect x="0.042" y="-0.324" width="0.245" height="0.09" style="fill-rule:nonzero;"/>
                </g>
                <g transform="matrix(12,0,0,12,281.519,103.571)">
                    <path d="M0.133,-0.169C0.135,-0.12 0.154,-0.087 0.189,-0.068C0.207,-0.059 0.227,-0.054 0.25,-0.054C0.292,-0.054 0.327,-0.071 0.357,-0.106C0.387,-0.141 0.408,-0.212 0.42,-0.319C0.4,-0.288 0.376,-0.267 0.347,-0.254C0.319,-0.242 0.288,-0.235 0.254,-0.235C0.187,-0.235 0.134,-0.256 0.094,-0.298C0.055,-0.34 0.036,-0.394 0.036,-0.46C0.036,-0.524 0.055,-0.58 0.094,-0.628C0.132,-0.676 0.19,-0.7 0.265,-0.7C0.367,-0.7 0.437,-0.654 0.476,-0.563C0.498,-0.512 0.508,-0.449 0.508,-0.373C0.508,-0.287 0.495,-0.212 0.47,-0.146C0.427,-0.035 0.355,0.02 0.253,0.02C0.185,0.02 0.133,0.002 0.097,-0.034C0.062,-0.07 0.044,-0.115 0.044,-0.169L0.133,-0.169ZM0.266,-0.313C0.301,-0.313 0.333,-0.324 0.362,-0.347C0.39,-0.37 0.405,-0.41 0.405,-0.467C0.405,-0.519 0.392,-0.557 0.366,-0.582C0.34,-0.608 0.307,-0.62 0.267,-0.62C0.224,-0.62 0.19,-0.606 0.165,-0.577C0.14,-0.548 0.127,-0.51 0.127,-0.461C0.127,-0.416 0.138,-0.38 0.16,-0.353C0.182,-0.326 0.218,-0.313 0.266,-0.313Z" style="fill-rule:nonzero;"/>
                </g>
                <g transform="matrix(12,0,0,12,288.193,103.571)">
                    <rect x="0.085" y="-0.106" width="0.102" height="0.106" style="fill-rule:nonzero;"/>
                </g>
                <g transform="matrix(12,0,0,12,291.527,103.571)">
                    <path d="M0.292,-0.702C0.371,-0.702 0.425,-0.682 0.456,-0.641C0.487,-0.601 0.502,-0.559 0.502,-0.516L0.415,-0.516C0.41,-0.544 0.402,-0.565 0.39,-0.581C0.369,-0.61 0.337,-0.625 0.294,-0.625C0.245,-0.625 0.206,-0.602 0.177,-0.557C0.148,-0.511 0.132,-0.446 0.128,-0.362C0.149,-0.391 0.174,-0.414 0.205,-0.428C0.233,-0.441 0.264,-0.448 0.298,-0.448C0.357,-0.448 0.408,-0.429 0.452,-0.392C0.495,-0.354 0.517,-0.298 0.517,-0.224C0.517,-0.161 0.496,-0.104 0.455,-0.055C0.414,-0.006 0.355,0.018 0.278,0.018C0.213,0.018 0.156,-0.007 0.109,-0.056C0.061,-0.106 0.038,-0.19 0.038,-0.307C0.038,-0.394 0.048,-0.468 0.069,-0.528C0.11,-0.644 0.184,-0.702 0.292,-0.702ZM0.286,-0.06C0.332,-0.06 0.367,-0.076 0.39,-0.107C0.413,-0.138 0.424,-0.174 0.424,-0.217C0.424,-0.253 0.414,-0.287 0.394,-0.319C0.373,-0.351 0.336,-0.368 0.282,-0.368C0.244,-0.368 0.211,-0.355 0.182,-0.33C0.154,-0.305 0.14,-0.267 0.14,-0.217C0.14,-0.173 0.153,-0.135 0.178,-0.105C0.204,-0.075 0.24,-0.06 0.286,-0.06Z" style="fill-rule:nonzero;"/>
                </g>
                <g transform="matrix(12,0,0,12,298.201,103.571)">
                    <rect x="0.085" y="-0.106" width="0.102" height="0.106" style="fill-rule:nonzero;"/>
                </g>
                <g transform="matrix(12,0,0,12,301.535,103.571)">
                    <path d="M0.031,-0C0.035,-0.06 0.047,-0.113 0.069,-0.157C0.09,-0.202 0.132,-0.242 0.195,-0.279L0.289,-0.333C0.331,-0.357 0.361,-0.378 0.377,-0.396C0.404,-0.423 0.417,-0.453 0.417,-0.488C0.417,-0.529 0.405,-0.561 0.381,-0.585C0.356,-0.609 0.324,-0.621 0.283,-0.621C0.223,-0.621 0.181,-0.598 0.158,-0.553C0.146,-0.528 0.139,-0.494 0.138,-0.451L0.048,-0.451C0.049,-0.512 0.061,-0.562 0.082,-0.6C0.12,-0.668 0.187,-0.702 0.284,-0.702C0.364,-0.702 0.422,-0.68 0.459,-0.637C0.496,-0.593 0.515,-0.545 0.515,-0.492C0.515,-0.436 0.495,-0.388 0.456,-0.349C0.433,-0.326 0.392,-0.298 0.333,-0.265L0.266,-0.228C0.234,-0.21 0.209,-0.193 0.191,-0.177C0.158,-0.149 0.138,-0.118 0.129,-0.083L0.511,-0.083L0.511,-0L0.031,-0Z" style="fill-rule:nonzero;"/>
                </g>
                <g transform="matrix(12,0,0,12,308.208,103.571)">
                    <path d="M0.271,-0.699C0.361,-0.699 0.426,-0.662 0.467,-0.587C0.498,-0.53 0.514,-0.451 0.514,-0.351C0.514,-0.256 0.5,-0.177 0.471,-0.115C0.43,-0.026 0.363,0.019 0.27,0.019C0.186,0.019 0.124,-0.017 0.083,-0.09C0.048,-0.151 0.031,-0.233 0.031,-0.335C0.031,-0.415 0.042,-0.483 0.062,-0.54C0.1,-0.646 0.17,-0.699 0.271,-0.699ZM0.27,-0.061C0.315,-0.061 0.351,-0.081 0.378,-0.122C0.405,-0.162 0.419,-0.237 0.419,-0.347C0.419,-0.427 0.409,-0.492 0.39,-0.543C0.37,-0.594 0.332,-0.62 0.276,-0.62C0.224,-0.62 0.186,-0.596 0.162,-0.547C0.138,-0.498 0.126,-0.427 0.126,-0.332C0.126,-0.261 0.134,-0.203 0.149,-0.16C0.173,-0.094 0.213,-0.061 0.27,-0.061Z" style="fill-rule:nonzero;"/>
                </g>
                <g transform="matrix(12,0,0,12,314.882,103.571)">
                    <path d="M0.031,-0C0.035,-0.06 0.047,-0.113 0.069,-0.157C0.09,-0.202 0.132,-0.242 0.195,-0.279L0.289,-0.333C0.331,-0.357 0.361,-0.378 0.377,-0.396C0.404,-0.423 0.417,-0.453 0.417,-0.488C0.417,-0.529 0.405,-0.561 0.381,-0.585C0.356,-0.609 0.324,-0.621 0.283,-0.621C0.223,-0.621 0.181,-0.598 0.158,-0.553C0.146,-0.528 0.139,-0.494 0.138,-0.451L0.048,-0.451C0.049,-0.512 0.061,-0.562 0.082,-0.6C0.12,-0.668 0.187,-0.702 0.284,-0.702C0.364,-0.702 0.422,-0.68 0.459,-0.637C0.496,-0.593 0.515,-0.545 0.515,-0.492C0.515,-0.436 0.495,-0.388 0.456,-0.349C0.433,-0.326 0.392,-0.298 0.333,-0.265L0.266,-0.228C0.234,-0.21 0.209,-0.193 0.191,-0.177C0.158,-0.149 0.138,-0.118 0.129,-0.083L0.511,-0.083L0.511,-0L0.031,-0Z" style="fill-rule:nonzero;"/>
                </g>
                <g transform="matrix(12,0,0,12,321.556,103.571)">
                    <path d="M0.292,-0.702C0.371,-0.702 0.425,-0.682 0.456,-0.641C0.487,-0.601 0.502,-0.559 0.502,-0.516L0.415,-0.516C0.41,-0.544 0.402,-0.565 0.39,-0.581C0.369,-0.61 0.337,-0.625 0.294,-0.625C0.245,-0.625 0.206,-0.602 0.177,-0.557C0.148,-0.511 0.132,-0.446 0.128,-0.362C0.149,-0.391 0.174,-0.414 0.205,-0.428C0.233,-0.441 0.264,-0.448 0.298,-0.448C0.357,-0.448 0.408,-0.429 0.452,-0.392C0.495,-0.354 0.517,-0.298 0.517,-0.224C0.517,-0.161 0.496,-0.104 0.455,-0.055C0.414,-0.006 0.355,0.018 0.278,0.018C0.213,0.018 0.156,-0.007 0.109,-0.056C0.061,-0.106 0.038,-0.19 0.038,-0.307C0.038,-0.394 0.048,-0.468 0.069,-0.528C0.11,-0.644 0.184,-0.702 0.292,-0.702ZM0.286,-0.06C0.332,-0.06 0.367,-0.076 0.39,-0.107C0.413,-0.138 0.424,-0.174 0.424,-0.217C0.424,-0.253 0.414,-0.287 0.394,-0.319C0.373,-0.351 0.336,-0.368 0.282,-0.368C0.244,-0.368 0.211,-0.355 0.182,-0.33C0.154,-0.305 0.14,-0.267 0.14,-0.217C0.14,-0.173 0.153,-0.135 0.178,-0.105C0.204,-0.075 0.24,-0.06 0.286,-0.06Z" style="fill-rule:nonzero;"/>
                </g>
            </g>
        </g>
    </g>
</svg>
